# xmcd CD database file
#
# Track frame offsets:
#	150
#	27226
#	57383
#	78049
#	97511
#	129538
#	149096
#	170762
#	192815
#	212723
#	233174
#	249990
#
# Disc length: 3639 seconds
#
# Revision: 0
# Processed by: cddbd v1.5PL3 Copyright (c) Steve Scherf et al.
# Submitted via: CDex 1.51
#
DISCID=9d0e350c
DTITLE=Ernst Glerum, Curtis Clark, Han Bennink - Home Safely
DYEAR=2004
DGENRE=Jazz
TTITLE0=Home Safely (&Peacefully)
TTITLE1=Miss T
TTITLE2=Ballad Of Jake Spoon
TTITLE3=Espace Theatral
TTITLE4=Another Blues
TTITLE5=Sean
TTITLE6=Sophia
TTITLE7=Duped
TTITLE8=Spooky Conversations
TTITLE9=Scratched
TTITLE10=Marseille
TTITLE11=Letter To South Africa
EXTD=YEAR: 2004
EXTT0=
EXTT1=
EXTT2=
EXTT3=
EXTT4=
EXTT5=
EXTT6=
EXTT7=
EXTT8=
EXTT9=
EXTT10=
EXTT11=
PLAYORDER=
